<svg width="828" height="466" viewBox="0 0 828 466" fill="none" xmlns="http://www.w3.org/2000/svg">
<rect x="0.5" y="0.5" width="719" height="413" fill="#292929" stroke="#333333"/>
<rect x="0.5" y="0.5" width="827" height="465" fill="#292929" stroke="#333333"/>
<rect x="217" y="78" width="394" height="311" rx="5.59355" fill="#484849"/>
<rect x="255.375" y="115.629" width="317.247" height="235.758" rx="2.96129" fill="#696969"/>
<path d="M255.375 304.757L327.011 253.782L385.855 296.08L498.427 190.877L572.622 273.304V348.432C572.622 350.067 571.296 351.393 569.66 351.393H258.336C256.701 351.393 255.375 350.067 255.375 348.432V304.757Z" fill="#9FA09F"/>
<ellipse cx="314.223" cy="178.326" rx="38.3766" ry="37.621" fill="#9FA09F"/>
<rect x="255.375" y="115.629" width="317.247" height="235.758" rx="2.96129" fill="black" fill-opacity="0.15"/>
<path d="M503.735 234.754C503.735 282.47 464.195 321.176 415.39 321.176C366.585 321.176 327.045 282.47 327.045 234.754C327.045 187.038 366.585 148.332 415.39 148.332C464.195 148.332 503.735 187.038 503.735 234.754Z" fill="#696969" stroke="#9FA09F" stroke-width="1.31613"/>
<path d="M387.915 274.969C381.274 232.099 386.07 201.286 389.298 191.238C419.735 198.741 451.325 222.944 463.315 234.108C440.072 253.936 403.364 269.61 387.915 274.969Z" fill="#9FA09F"/>
<path d="M503.735 234.754C503.735 282.47 464.195 321.176 415.39 321.176C366.585 321.176 327.045 282.47 327.045 234.754C327.045 187.038 366.585 148.332 415.39 148.332C464.195 148.332 503.735 187.038 503.735 234.754Z" stroke="#9FA09F" stroke-width="1.31613"/>
<mask id="mask0" style="mask-type:alpha" maskUnits="userSpaceOnUse" x="217" y="78" width="394" height="311">
<rect x="217" y="78" width="394" height="311" rx="5.59355" fill="#484849"/>
<rect x="255.375" y="115.629" width="317.247" height="235.758" rx="2.96129" fill="#696969"/>
<path d="M255.375 304.757L327.011 253.782L385.855 296.08L498.427 190.877L572.622 273.304V348.432C572.622 350.067 571.296 351.393 569.66 351.393H258.336C256.701 351.393 255.375 350.067 255.375 348.432V304.757Z" fill="#9FA09F"/>
<ellipse cx="314.223" cy="178.326" rx="38.3766" ry="37.621" fill="#9FA09F"/>
</mask>
<g mask="url(#mask0)">
<rect width="726.378" height="356.301" transform="matrix(0.794357 -0.607451 0.622628 0.782518 97.0962 455.754)" fill="black" fill-opacity="0.15"/>
</g>
</svg>
